<svg xmlns="http://www.w3.org/2000/svg" viewBox="0 0 33.43 33.43"><defs><style>.cls-1{fill:#002151;}.cls-2{fill:#fff;}.cls-3{fill:#e80959;}</style></defs><title>fav30_1</title><g id="Capa_2" data-name="Capa 2"><g id="Capa_1-2" data-name="Capa 1"><rect class="cls-1" width="33.43" height="33.43" rx="4.9"/><path class="cls-2" d="M7.94,16.19a2.26,2.26,0,0,0-1.1-.25,2.11,2.11,0,0,0-1.15.29.89.89,0,0,0-.44.78.69.69,0,0,0,.22.5,1.9,1.9,0,0,0,.81.39L8,18.39a3,3,0,0,1,1.45.77,1.82,1.82,0,0,1,.46,1.24,1.88,1.88,0,0,1-.39,1.18,2.55,2.55,0,0,1-1.11.79,4.35,4.35,0,0,1-1.61.28,4.39,4.39,0,0,1-2-.42,2.68,2.68,0,0,1-1.22-1.12.19.19,0,0,1,0-.12.14.14,0,0,1,.07-.13l.68-.36a.33.33,0,0,1,.14,0,.17.17,0,0,1,.12.05,2.44,2.44,0,0,0,2.19,1.12A2.54,2.54,0,0,0,8,21.35a.88.88,0,0,0,.51-.78A.75.75,0,0,0,8.26,20a2.3,2.3,0,0,0-.94-.42L5.89,19.2a3.09,3.09,0,0,1-1.51-.74,1.7,1.7,0,0,1-.48-1.23,1.94,1.94,0,0,1,.38-1.18,2.39,2.39,0,0,1,1-.8A3.88,3.88,0,0,1,6.85,15a3.91,3.91,0,0,1,1.71.37,2.68,2.68,0,0,1,1.13,1,.24.24,0,0,1,.06.14s0,.07-.07.1L9,16.89l-.08,0a.26.26,0,0,1-.16-.07A2,2,0,0,0,7.94,16.19Z"/><path class="cls-2" d="M12.5,22.4V15.27c0-.09,0-.14.13-.14H13a.11.11,0,0,1,.13.13v.85c0,.05,0,.08,0,.08s0,0,.08,0a8.17,8.17,0,0,1,1.35-.9A2.79,2.79,0,0,1,15.83,15a2.19,2.19,0,0,1,1.31.36,1.67,1.67,0,0,1,.67.86.07.07,0,0,0,.06,0,.36.36,0,0,0,.15-.08,7.56,7.56,0,0,1,1.35-.91A2.66,2.66,0,0,1,20.58,15a2.12,2.12,0,0,1,1.57.56,2,2,0,0,1,.55,1.51v5.33c0,.1,0,.15-.14.15h-.42A.13.13,0,0,1,22,22.4V17.3c0-1.13-.5-1.69-1.52-1.69a2.38,2.38,0,0,0-1.18.3,8.36,8.36,0,0,0-1.12.77.76.76,0,0,0-.18.2.48.48,0,0,0-.05.22v5.29c0,.1,0,.15-.14.15h-.42a.13.13,0,0,1-.14-.14V17.3c0-1.13-.5-1.69-1.52-1.69a2.41,2.41,0,0,0-1.17.28,7.41,7.41,0,0,0-1.36,1V22.4c0,.09,0,.14-.15.14h-.41A.13.13,0,0,1,12.5,22.4Z"/><path class="cls-2" d="M28.48,16.17c-.09,0-.13,0-.13.14V20.4a1.14,1.14,0,0,0,.22.81.91.91,0,0,0,.69.23h.9a.14.14,0,0,1,.16.16v.6a.22.22,0,0,1-.21.24,9.62,9.62,0,0,1-1.42.07,1.94,1.94,0,0,1-1.37-.42,1.76,1.76,0,0,1-.45-1.32V16.33c0-.11-.05-.16-.14-.16H25.68c-.12,0-.18-.06-.18-.17v-.74a.15.15,0,0,1,.17-.16h1.12c.07,0,.11,0,.11-.12l.17-2.2c0-.13.07-.19.16-.19h1c.12,0,.18.07.18.22V15c0,.08,0,.12.13.12h1.67c.12,0,.17.06.17.16V16c0,.11-.06.17-.19.17Z"/><line class="cls-3" x1="4.13" y1="25.34" x2="30.77" y2="25.34"/><rect class="cls-2" x="4.13" y="24.76" width="26.64" height="1.16"/></g></g></svg>